# xmcd
#
# Track frame offsets:
#	150
#	17590
#	27232
#	41806
#	54531
#	69289
#	88418
#	100477
#	113675
#	125165
#
# Disc length: 1815 seconds
#
# Revision: 1
# Processed by: cddbd v1.5.2PL0 Copyright (c) Steve Scherf et al.
# Submitted via: audiograbber 1.83.01
#
DISCID=8807150a
DTITLE=Eric Dodge - Never Walk Alone
DYEAR=2013
DGENRE=Country
TTITLE0=How Great Thou Art 
TTITLE1=I Need Thee Every Hour
TTITLE2=Because I Have Been Given Much 
TTITLE3=Nearer My God To Thee
TTITLE4=Amazing Grace
TTITLE5=You'll Never Walk Alone 
TTITLE6=Come Thou Fount Of Every Blessing
TTITLE7=Love One Another
TTITLE8=The Old Rugged Cross
TTITLE9=What A Wonderful World
EXTD=
EXTT0=
EXTT1=
EXTT2=
EXTT3=
EXTT4=
EXTT5=
EXTT6=
EXTT7=
EXTT8=
EXTT9=
PLAYORDER=
